<svg width="426" height="100" viewBox="0 0 426 100" fill="none" xmlns="http://www.w3.org/2000/svg">
<path d="M157.47 99.9607H114.76C110.99 99.9607 107.93 96.9007 107.93 93.1207V42.8107C107.93 39.0407 110.99 35.9807 114.76 35.9807H156.28C156.28 42.5407 150.96 47.8607 144.4 47.8607H122.65V61.7507H140.84C147.2 61.7507 152.36 66.9107 152.36 73.2707H122.65V88.0807H145.59C152.15 88.0807 157.47 93.4007 157.47 99.9607Z" fill="#1A61FF"/>
<path d="M222.19 72.4907C224.26 75.2007 225.3 78.5407 225.3 82.5007C225.3 88.1107 223.12 92.4207 218.76 95.4307C214.4 98.4507 208.05 99.9607 199.7 99.9607H175.7C170.68 99.9607 166.61 95.8907 166.61 90.8707V45.0607C166.61 40.0407 170.68 35.9707 175.7 35.9707H197.87C205.67 35.9707 211.66 37.4607 215.83 40.4507C220 43.4407 222.09 47.4907 222.09 52.6107C222.09 55.7207 221.34 58.4907 219.85 60.9307C218.36 63.3707 216.27 65.2907 213.59 66.6907C217.25 67.8507 220.11 69.7807 222.18 72.4907H222.19ZM181.33 47.1307V62.2107H196.05C199.71 62.2107 202.48 61.5707 204.37 60.2907C206.26 59.0107 207.2 57.1207 207.2 54.6207C207.2 52.1207 206.25 50.2507 204.37 49.0007C202.48 47.7507 199.71 47.1307 196.05 47.1307H181.33ZM207.42 86.8907C209.4 85.6107 210.39 83.6307 210.39 80.9507C210.39 75.6507 206.46 73.0007 198.6 73.0007H181.33V88.8107H198.6C202.5 88.8107 205.44 88.1707 207.42 86.8907Z" fill="#1A61FF"/>
<path d="M283.42 99.9607C283.42 93.3007 278.02 87.9007 271.36 87.9007H253.12C252.14 87.9007 251.35 87.1107 251.35 86.1307V50.8007C251.35 42.6207 244.72 35.9907 236.54 35.9907V90.4307C236.54 95.7007 240.81 99.9807 246.09 99.9807H283.43L283.42 99.9607Z" fill="#1A61FF"/>
<path d="M306.55 35.9807V85.1507C306.55 93.3307 299.92 99.9607 291.74 99.9607V50.7907C291.74 42.6107 298.37 35.9807 306.55 35.9807Z" fill="#1A61FF"/>
<path d="M332.61 47.8607V64.7707H362.22C362.22 71.3307 356.9 76.6507 350.34 76.6507H332.61V85.1507C332.61 93.3307 325.98 99.9607 317.8 99.9607V45.4707C317.8 40.2307 322.05 35.9807 327.29 35.9807H366.15C366.15 42.5407 360.83 47.8607 354.27 47.8607H332.61Z" fill="#1A61FF"/>
<path d="M389.92 48.0407H369.45C369.45 41.3807 374.85 35.9707 381.52 35.9707H425.21C425.21 42.6307 419.81 48.0407 413.14 48.0407H404.73V85.1507C404.73 93.3307 398.1 99.9607 389.92 99.9607V48.0407Z" fill="#1A61FF"/>
<path d="M106.37 22.6507H103.42L77.25 92.4007C75.77 96.9107 71.57 99.9507 66.83 99.9507C64.45 99.9507 62.22 99.1907 60.39 97.8607C58.56 96.5307 57.15 94.6407 56.41 92.3807L44.8 56.6307L32.88 92.1407C31.48 96.3107 27.84 99.4707 23.46 99.9007C20.69 100.171 18.05 99.3907 15.96 97.8707C14.13 96.5507 12.71 94.6607 11.97 92.4207L0 55.3907H9.30002C12.91 55.3907 16.1 57.7207 17.2 61.1507L23.22 80.9407L36.14 42.4307C37.43 38.5707 41.05 35.9707 45.12 35.9707C47.17 35.9707 49.11 36.6307 50.69 37.7807C52.27 38.9407 53.5 40.5807 54.13 42.5407L66.64 81.3107L89.03 22.6507H86.45C83.44 22.6507 81.87 19.0507 83.93 16.8507L98.63 1.10072C100.41 -0.819276 103.6 -0.119266 104.42 2.36073L109.65 18.1207C110.39 20.3507 108.73 22.6507 106.37 22.6507Z" fill="#1A61FF"/>
</svg>
